<svg width="207" height="187" viewBox="0 0 207 187" fill="none" xmlns="http://www.w3.org/2000/svg">
<rect width="20" height="185" fill="#FECA57"/>
<rect y="20" width="20" height="60" transform="rotate(-90 0 20)" fill="#FECA57"/>
<rect x="0.075531" y="186.229" width="20" height="60" transform="rotate(-90 0.075531 186.229)" fill="#FECA57"/>
<rect x="187" width="20" height="186" fill="#FECA57"/>
<rect x="147" y="20" width="20" height="60" transform="rotate(-90 147 20)" fill="#FECA57"/>
<rect x="147" y="186" width="20" height="60" transform="rotate(-90 147 186)" fill="#FECA57"/>
<path d="M54.6667 122.458V55.6146C54.6667 54.4965 55.1903 53.3785 56.2375 52.2604C57.2847 51.1424 58.3722 50.5833 59.5 50.5833H122.213C123.421 50.5833 124.549 51.1224 125.596 52.2005C126.643 53.2786 127.167 54.4167 127.167 55.6146V98.2604C127.167 99.3785 126.643 100.497 125.596 101.615C124.549 102.733 123.421 103.292 122.213 103.292H74L54.6667 122.458ZM78.9542 127.25C77.8264 127.25 76.7188 126.691 75.6313 125.573C74.5438 124.455 74 123.337 74 122.219V110.479H134.417V69.75H146.5C147.628 69.75 148.715 70.309 149.762 71.4271C150.81 72.5451 151.333 73.7031 151.333 74.901V146.297L132.121 127.25H78.9542ZM119.917 57.7708H61.9167V105.089L70.9792 96.1042H119.917V57.7708ZM61.9167 57.7708V105.089V57.7708Z" fill="#FECA57"/>
</svg>
