<svg width="431" height="187" viewBox="0 0 431 187" fill="none" xmlns="http://www.w3.org/2000/svg">
<rect width="20" height="185" fill="#FECA57"/>
<rect y="20" width="20" height="60" transform="rotate(-90 0 20)" fill="#FECA57"/>
<rect x="0.075531" y="186.229" width="20" height="60" transform="rotate(-90 0.075531 186.229)" fill="#FECA57"/>
<rect x="411" width="20" height="186" fill="#FECA57"/>
<rect x="371" y="20" width="20" height="60" transform="rotate(-90 371 20)" fill="#FECA57"/>
<rect x="371" y="186" width="20" height="60" transform="rotate(-90 371 186)" fill="#FECA57"/>
<path d="M35.76 132C34.2 132 33.03 131.34 32.25 130.02C31.47 128.7 31.41 127.32 32.07 125.88L57.81 64.59C58.59 62.67 59.91 61.71 61.77 61.71C63.75 61.71 65.1 62.67 65.82 64.59L91.65 126.06C92.25 127.5 92.13 128.85 91.29 130.11C90.51 131.37 89.34 132 87.78 132C87 132 86.25 131.79 85.53 131.37C84.81 130.89 84.27 130.23 83.91 129.39L60.6 72.15H63.21L39.72 129.39C39.36 130.29 38.82 130.95 38.1 131.37C37.38 131.79 36.6 132 35.76 132ZM40.98 116.07L44.31 108.96H80.04L83.28 116.07H40.98ZM124.331 132.9C120.491 132.9 116.861 132.33 113.441 131.19C110.081 129.99 107.141 128.34 104.621 126.24C102.101 124.14 100.241 121.68 99.0413 118.86C98.4413 117.72 98.4113 116.67 98.9513 115.71C99.5513 114.75 100.511 114.12 101.831 113.82C102.851 113.58 103.841 113.73 104.801 114.27C105.761 114.75 106.481 115.5 106.961 116.52C107.741 118.14 108.971 119.61 110.651 120.93C112.331 122.19 114.341 123.21 116.681 123.99C119.081 124.77 121.631 125.16 124.331 125.16C127.331 125.16 130.031 124.68 132.431 123.72C134.891 122.76 136.841 121.38 138.281 119.58C139.781 117.72 140.531 115.47 140.531 112.83C140.531 109.47 139.241 106.5 136.661 103.92C134.081 101.34 129.941 99.72 124.241 99.06C116.981 98.28 111.281 96.09 107.141 92.49C103.001 88.89 100.931 84.45 100.931 79.17C100.931 75.33 101.981 72.06 104.081 69.36C106.181 66.6 109.061 64.5 112.721 63.06C116.381 61.62 120.521 60.9 125.141 60.9C128.621 60.9 131.711 61.41 134.411 62.43C137.171 63.45 139.541 64.86 141.521 66.66C143.561 68.4 145.301 70.41 146.741 72.69C147.461 73.89 147.731 75.03 147.551 76.11C147.431 77.13 146.891 77.94 145.931 78.54C144.851 79.14 143.711 79.26 142.511 78.9C141.371 78.54 140.501 77.85 139.901 76.83C139.001 75.21 137.861 73.8 136.481 72.6C135.101 71.4 133.451 70.44 131.531 69.72C129.671 69 127.451 68.64 124.871 68.64C120.311 68.58 116.561 69.48 113.621 71.34C110.681 73.14 109.211 75.87 109.211 79.53C109.211 81.45 109.691 83.25 110.651 84.93C111.671 86.55 113.411 87.99 115.871 89.25C118.391 90.45 121.901 91.32 126.401 91.86C133.661 92.7 139.211 94.92 143.051 98.52C146.891 102.06 148.811 106.74 148.811 112.56C148.811 115.92 148.151 118.86 146.831 121.38C145.571 123.9 143.801 126.03 141.521 127.77C139.241 129.45 136.601 130.74 133.601 131.64C130.661 132.48 127.571 132.9 124.331 132.9ZM167.507 132C166.367 132 165.377 131.61 164.537 130.83C163.697 129.99 163.277 128.97 163.277 127.77V65.94C163.277 64.74 163.697 63.75 164.537 62.97C165.377 62.13 166.367 61.71 167.507 61.71C168.707 61.71 169.697 62.13 170.477 62.97C171.317 63.75 171.737 64.74 171.737 65.94V94.29L202.697 63.33C203.357 62.73 203.927 62.31 204.407 62.07C204.947 61.83 205.517 61.71 206.117 61.71C207.497 61.71 208.487 62.13 209.087 62.97C209.687 63.75 209.927 64.71 209.807 65.85C209.687 66.93 209.207 67.95 208.367 68.91L184.697 92.58L208.727 125.25C209.387 126.21 209.657 127.23 209.537 128.31C209.417 129.33 209.027 130.2 208.367 130.92C207.707 131.64 206.837 132 205.757 132C204.197 132 203.027 131.4 202.247 130.2L178.847 98.43L171.737 105.54V127.77C171.737 128.97 171.317 129.99 170.477 130.83C169.697 131.61 168.707 132 167.507 132ZM216.855 111.48C215.655 111.48 214.665 111.12 213.885 110.4C213.105 109.62 212.715 108.63 212.715 107.43C212.715 106.17 213.105 105.18 213.885 104.46C214.665 103.68 215.655 103.29 216.855 103.29H237.285C238.485 103.29 239.475 103.68 240.255 104.46C241.035 105.18 241.425 106.17 241.425 107.43C241.425 108.63 241.035 109.62 240.255 110.4C239.475 111.12 238.485 111.48 237.285 111.48H216.855ZM257.771 132C256.571 132 255.551 131.61 254.711 130.83C253.931 129.99 253.541 128.97 253.541 127.77V65.94C253.541 64.68 253.931 63.66 254.711 62.88C255.551 62.1 256.571 61.71 257.771 61.71C259.451 61.71 260.711 62.46 261.551 63.96L290.531 121.83H287.561L315.911 63.96C316.811 62.46 318.071 61.71 319.691 61.71C320.891 61.71 321.881 62.1 322.661 62.88C323.501 63.66 323.921 64.68 323.921 65.94V127.77C323.921 128.97 323.501 129.99 322.661 130.83C321.821 131.61 320.831 132 319.691 132C318.491 132 317.471 131.61 316.631 130.83C315.851 129.99 315.461 128.97 315.461 127.77V77.37L317.081 77.19L292.421 127.59C291.521 129.03 290.291 129.75 288.731 129.75C286.931 129.75 285.641 128.88 284.861 127.14L260.201 77.82L262.001 77.37V127.77C262.001 128.97 261.581 129.99 260.741 130.83C259.961 131.61 258.971 132 257.771 132ZM346.189 132C344.989 132 343.969 131.61 343.129 130.83C342.349 129.99 341.959 128.97 341.959 127.77V65.94C341.959 64.68 342.349 63.66 343.129 62.88C343.969 62.1 344.989 61.71 346.189 61.71H387.499C388.699 61.71 389.689 62.1 390.469 62.88C391.249 63.6 391.639 64.56 391.639 65.76C391.639 66.84 391.249 67.77 390.469 68.55C389.689 69.27 388.699 69.63 387.499 69.63H350.419V92.67H377.149C378.409 92.67 379.399 93.06 380.119 93.84C380.899 94.56 381.289 95.49 381.289 96.63C381.289 97.77 380.899 98.73 380.119 99.51C379.399 100.23 378.409 100.59 377.149 100.59H350.419V124.08H387.499C388.699 124.08 389.689 124.47 390.469 125.25C391.249 125.97 391.639 126.87 391.639 127.95C391.639 129.15 391.249 130.14 390.469 130.92C389.689 131.64 388.699 132 387.499 132H346.189Z" fill="black"/>
</svg>
